<svg xmlns="http://www.w3.org/2000/svg" viewBox="863.974 532.328 193.58 15.96">
  <defs>
    <style>
      .cls-1 {
        fill: #fff;
      }
    </style>
  </defs>
  <path id="Path_1" data-name="Path 1" class="cls-1" d="M11.856-5.544H4.3L8.088-13.1ZM12.6-4.032l1.872,3.72c.456.936,2.232.336,1.608-.7L8.856-15.216a.842.842,0,0,0-.768-.456.852.852,0,0,0-.792.456L.048-.936C-.384.024,1.2.648,1.632-.24L3.576-4.032Zm9.888-11.256a.828.828,0,1,0,0,1.656h5.328V-.6a.849.849,0,0,0,.864.888A.887.887,0,0,0,29.592-.6c0-4.32-.024-8.712-.024-13.032H34.92a.83.83,0,1,0,0-1.656ZM46.824-13.68h4.848c2.784,0,4.44,1.584,4.464,3.552.048,1.8-1.32,3.264-4.464,3.264H46.824ZM51.48-5.352,56.328-.1a.835.835,0,1,0,1.2-1.152l-3.888-4.2c2.952-.5,4.272-2.256,4.272-4.68,0-2.808-2.112-5.16-6.264-5.16H45.96a.82.82,0,0,0-.888.84V-.672A.878.878,0,0,0,46.824-.7V-5.352Zm26.592-.192h-7.56L74.3-13.1Zm.744,1.512,1.872,3.72c.456.936,2.232.336,1.608-.7L75.072-15.216a.842.842,0,0,0-.768-.456.852.852,0,0,0-.792.456L66.264-.936c-.432.96,1.152,1.584,1.584.7l1.944-3.792Zm25.752,1.3c.624-.888-.84-1.776-1.392-.96a6.109,6.109,0,0,1-1.968,1.608,6.362,6.362,0,0,1-2.784.7A6.265,6.265,0,0,1,92.3-7.824a5.673,5.673,0,0,1,5.04-6.024,6.128,6.128,0,0,1,5.64,1.752c.672.72,1.968-.264,1.248-1.08a7.881,7.881,0,0,0-7.152-2.3,7.649,7.649,0,0,0-6.5,7.632,7.917,7.917,0,0,0,7.8,8.112,8.99,8.99,0,0,0,3.6-.864A6.83,6.83,0,0,0,104.568-2.736Zm8.856-12.552a.828.828,0,1,0,0,1.656h5.328V-.6a.849.849,0,0,0,.864.888.887.887,0,0,0,.912-.888c0-4.32-.024-8.712-.024-13.032h5.352a.83.83,0,1,0,0-1.656Zm30.384,9.744h-7.56l3.792-7.56Zm.744,1.512,1.872,3.72c.456.936,2.232.336,1.608-.7l-7.224-14.208a.842.842,0,0,0-.768-.456.852.852,0,0,0-.792.456L132-.936c-.432.96,1.152,1.584,1.584.7l1.944-3.792Zm23.976-2.16.24,3.624-9.24-12.36a1.026,1.026,0,0,0-1.944.5V-.672a.912.912,0,0,0,1.824,0V-9.144l-.192-3.312L168.192-.432c.5.84,2.16.72,2.16-.48V-14.688c0-1.056-1.824-1.008-1.824,0Zm11.712-9.1a.828.828,0,1,0,0,1.656h5.328V-.6a.849.849,0,0,0,.864.888.887.887,0,0,0,.912-.888c0-4.32-.024-8.712-.024-13.032h5.352a.83.83,0,1,0,0-1.656Z" transform="translate(864 548)"/>
</svg>
